# xmcd
#
# Track frame offsets: 
#        150
#        13762
#        26857
#        40260
#        58387
#        79475
#        95922
#        109800
#        124554
#        139902
#
# Disc length: 2061 seconds
#
# Revision: 1
# Processed by: cddbd v1.4PL0 Copyright (c) Steve Scherf et al.
# Submitted via: ExactAudioCopy v0.95a3
#
DISCID=93080b0a
DTITLE=Various Artist - 80's Country
DYEAR=1900
DGENRE=Country
TTITLE0=John Anderson - Swingin'
TTITLE1=Larry Gatlin - Houston
TTITLE2=Mel McDaniel - Baby's Got Her Blue Jeans On
TTITLE3=Juice Newton - Break It To Me Gently
TTITLE4=Gary Morris - Wind Beneath My Wings
TTITLE5=Ronnie Milsap - Any Day Now
TTITLE6=Dolly Parton - I Will Always Love You
TTITLE7=Ricky Skaggs - Heartbroke
TTITLE8=The Statler Brothers - Elizabeth
TTITLE9=Mickey Gilley - Talk To Me
EXTD=
EXTT0=
EXTT1=
EXTT2=
EXTT3=
EXTT4=
EXTT5=
EXTT6=
EXTT7=
EXTT8=
EXTT9=
PLAYORDER=
